# xmcd
# 
# Track frame offsets:
#     150
#     18835
#     33602
#     47927
#     66080
# 
# Disc length: 1067
# 
# Revision: 3
# Processed by: cddbd v1.5.2PL0 Copyright (c) Steve Scherf et al.
# Submitted via: BonkEnc v1.0
# 
DISCID=3d042905
DTITLE=王菲 - 王菲2001 disc02
DYEAR=2001
DGENRE=Rock
TTITLE0=迷魂記
TTITLE1=色盲
TTITLE2=不眠飛行
TTITLE3=心路
TTITLE4=女皇的新衣
EXTD=
EXTT0=
EXTT1=
EXTT2=
EXTT3=
EXTT4=
PLAYORDER=
